<?xml version="1.0" encoding="UTF-8" standalone="no"?>
<svg
   xmlns:dc="http://purl.org/dc/elements/1.1/"
   xmlns:cc="http://creativecommons.org/ns#"
   xmlns:rdf="http://www.w3.org/1999/02/22-rdf-syntax-ns#"
   xmlns:svg="http://www.w3.org/2000/svg"
   xmlns="http://www.w3.org/2000/svg"
   xmlns:sodipodi="http://sodipodi.sourceforge.net/DTD/sodipodi-0.dtd"
   xmlns:inkscape="http://www.inkscape.org/namespaces/inkscape"
   width="75.035553mm"
   height="102.29576mm"
   viewBox="0 0 75.035553 102.29576"
   version="1.1"
   id="svg7532"
   inkscape:version="1.0.2-2 (e86c870879, 2021-01-15)"
   sodipodi:docname="Jive_Records_1981.svg"
   inkscape:export-filename="C:\Users\tjdru\OneDrive\Pictures\Logos\Music\jiverecordslogo1981.png"
   inkscape:export-xdpi="248.29964"
   inkscape:export-ydpi="248.29964">
  <defs
     id="defs7526" />
  <sodipodi:namedview
     id="base"
     pagecolor="#ffffff"
     bordercolor="#666666"
     borderopacity="1.0"
     inkscape:pageopacity="0.0"
     inkscape:pageshadow="2"
     inkscape:zoom="1"
     inkscape:cx="106.14562"
     inkscape:cy="196.62251"
     inkscape:document-units="mm"
     inkscape:current-layer="layer1"
     inkscape:document-rotation="0"
     showgrid="false"
     inkscape:window-width="1366"
     inkscape:window-height="705"
     inkscape:window-x="-8"
     inkscape:window-y="-8"
     inkscape:window-maximized="1"
     inkscape:snap-global="false"
     showguides="true"
     inkscape:guide-bbox="true" />
  <metadata
     id="metadata7529">
    <rdf:RDF>
      <cc:Work
         rdf:about="">
        <dc:format>image/svg+xml</dc:format>
        <dc:type
           rdf:resource="http://purl.org/dc/dcmitype/StillImage" />
        <dc:title></dc:title>
      </cc:Work>
    </rdf:RDF>
  </metadata>
  <g
     inkscape:label="Layer 1"
     inkscape:groupmode="layer"
     id="layer1"
     style="display:inline;opacity:1"
     transform="translate(-67.91263,-89.337434)">
    <g
       id="g7751"
       transform="matrix(1.12187,0,0,1.12187,-12.848799,-23.354329)">
      <path
         id="rect7685"
         style="fill:#000000;stroke:none;stroke-width:10.9033;paint-order:markers stroke fill;stop-color:#000000"
         d="m 272.08203,498.79492 v 54.44727 h 252.79072 v -54.44727 z m 2.74219,2.74414 H 522.12861 V 550.5 H 274.82422 Z"
         transform="scale(0.26458333)"
         sodipodi:nodetypes="cccccccccc" />
      <path
         id="rect7572-2"
         style="display:inline;fill:#000000;stroke:none;stroke-width:2.76181;paint-order:markers stroke fill;stop-color:#000000"
         d="M 94.242812,100.44993 V 159.9591 L 71.988224,146.52059 v 29.92293 l 25.154563,15.18967 v -71.1573 l 19.196593,11.59194 v -18.27481 z"
         sodipodi:nodetypes="ccccccccc" />
      <path
         id="path7671-0"
         style="font-style:normal;font-variant:normal;font-weight:bold;font-stretch:normal;font-size:10.5279px;line-height:1;font-family:'Univers BQ';-inkscape-font-specification:'Univers BQ Bold';text-decoration:none;text-decoration-line:none;text-decoration-color:#000000;letter-spacing:0px;word-spacing:0px;display:inline;fill:#000000;stroke:none;stroke-width:7.19443;paint-order:markers stroke fill"
         d="m 130.09861,135.57692 v 7.53361 h 5.87354 v -1.43804 h -3.84526 v -1.69559 h 3.20331 v -1.41659 h -3.19258 v -1.57755 h 3.83453 v -1.40586 z m -6.2997,-0.0107 c -0.35563,0.94438 -0.72238,1.89951 -1.04468,2.86535 -0.3223,0.94439 -0.62236,1.89951 -0.91133,2.85462 -0.22228,-0.75121 -0.45565,-1.50243 -0.70016,-2.25364 -0.36675,-1.15902 -0.77796,-2.31805 -1.17805,-3.46633 h -2.44501 l 2.93401,7.53362 h 2.53392 l 2.93402,-7.53362 z m -13.17202,0 v 7.53362 h 2.17854 v -7.53362 z m -7.77945,4.74339 c 0.0107,0.35415 0.0215,0.89073 -0.2039,1.18049 -0.1717,0.21463 -0.49366,0.23609 -0.56878,0.23609 -0.21464,0 -0.36488,-0.0858 -0.42926,-0.15024 -0.2683,-0.21464 -0.2683,-0.53658 -0.2683,-0.88 l -2.124859,-0.0107 c 0,0.15025 -0.0429,0.68682 0.11804,1.16975 0.11805,0.32195 0.31122,0.62244 0.56878,0.82634 0.536589,0.44 1.416569,0.59024 2.114139,0.59024 1.18048,0 1.82438,-0.36488 2.22145,-0.74048 0.66536,-0.63317 0.70829,-1.42732 0.74049,-2.35023 v -4.63609 h -2.1678 z"
         sodipodi:nodetypes="cccccccccccccccccccccccccccccccccccccccccc" />
    </g>
  </g>
</svg>
